<?xml version="1.0" encoding="UTF-8" standalone="no"?>
<!DOCTYPE svg PUBLIC "-//W3C//DTD SVG 1.1//EN"
 "http://www.w3.org/Graphics/SVG/1.1/DTD/svg11.dtd">
<!-- Generated by graphviz version 2.47.0 (20210316.0004)
 -->
<!-- Title: dependencies Pages: 1 -->
<svg width="613pt" height="366pt"
 viewBox="0.00 0.00 613.00 366.00" xmlns="http://www.w3.org/2000/svg" xmlns:xlink="http://www.w3.org/1999/xlink">
<g id="graph0" class="graph" transform="scale(1 1) rotate(0) translate(4 362)">
<title>dependencies</title>
<polygon fill="white" stroke="transparent" points="-4,4 -4,-362 609,-362 609,4 -4,4"/>
<text text-anchor="start" x="281.51" y="-42.4" font-family="Times-12" font-weight="bold" font-size="14.00">Legend</text>
<polygon fill="#ffffb3" stroke="transparent" points="68.5,-10 68.5,-30 88.5,-30 88.5,-10 68.5,-10"/>
<text text-anchor="start" x="92.13" y="-15.4" font-family="Times-12" font-size="14.00"> &#160;Declarations</text>
<polygon fill="#8dd3c7" stroke="transparent" points="181.5,-10 181.5,-30 201.5,-30 201.5,-10 181.5,-10"/>
<text text-anchor="start" x="205.23" y="-15.4" font-family="Times-12" font-size="14.00"> &#160;Module</text>
<polygon fill="#80b1d3" stroke="transparent" points="267.5,-10 267.5,-30 287.5,-30 287.5,-10 267.5,-10"/>
<text text-anchor="start" x="291.28" y="-15.4" font-family="Times-12" font-size="14.00"> &#160;Bootstrap</text>
<polygon fill="#fdb462" stroke="transparent" points="364.5,-10 364.5,-30 384.5,-30 384.5,-10 364.5,-10"/>
<text text-anchor="start" x="388.17" y="-15.4" font-family="Times-12" font-size="14.00"> &#160;Providers</text>
<polygon fill="#fb8072" stroke="transparent" points="460.5,-10 460.5,-30 480.5,-30 480.5,-10 460.5,-10"/>
<text text-anchor="start" x="484.23" y="-15.4" font-family="Times-12" font-size="14.00"> &#160;Exports</text>
<g id="clust7" class="cluster">
<title>cluster_AuthModule</title>
<polygon fill="none" stroke="black" stroke-dasharray="1,5" points="447,-138 447,-350 597,-350 597,-138 447,-138"/>
</g>
<g id="clust12" class="cluster">
<title>cluster_AuthModule_providers</title>
<polygon fill="none" stroke="black" points="455,-146 455,-198 589,-198 589,-146 455,-146"/>
</g>
<g id="clust10" class="cluster">
<title>cluster_AuthModule_exports</title>
<polygon fill="none" stroke="black" points="462,-290 462,-342 568,-342 568,-290 462,-290"/>
</g>
<g id="clust19" class="cluster">
<title>cluster_UsersModule</title>
<polygon fill="none" stroke="black" stroke-dasharray="1,5" points="8,-70 8,-282 164,-282 164,-70 8,-70"/>
</g>
<g id="clust22" class="cluster">
<title>cluster_UsersModule_exports</title>
<polygon fill="none" stroke="black" points="30,-222 30,-274 140,-274 140,-222 30,-222"/>
</g>
<g id="clust24" class="cluster">
<title>cluster_UsersModule_providers</title>
<polygon fill="none" stroke="black" points="16,-78 16,-130 156,-130 156,-78 16,-78"/>
</g>
<g id="clust1" class="cluster">
<title>cluster_AppModule</title>
<polygon fill="none" stroke="black" stroke-dasharray="1,5" points="172,-214 172,-342 432,-342 432,-214 172,-214"/>
</g>
<g id="clust3" class="cluster">
<title>cluster_AppModule_imports</title>
<polygon fill="none" stroke="black" points="318,-222 318,-274 424,-274 424,-222 318,-222"/>
</g>
<g id="clust6" class="cluster">
<title>cluster_AppModule_providers</title>
<polygon fill="none" stroke="black" points="180,-222 180,-274 310,-274 310,-222 180,-222"/>
</g>
<g id="clust13" class="cluster">
<title>cluster_PostsModule</title>
<polygon fill="none" stroke="black" stroke-dasharray="1,5" points="287,-138 287,-206 439,-206 439,-138 287,-138"/>
</g>
<g id="clust18" class="cluster">
<title>cluster_PostsModule_providers</title>
<polygon fill="none" stroke="black" points="295,-146 295,-198 431,-198 431,-146 295,-146"/>
</g>
<!-- AuthModule -->
<g id="node1" class="node">
<title>AuthModule</title>
<polygon fill="#8dd3c7" stroke="black" points="558.55,-266 555.55,-270 534.55,-270 531.55,-266 471.45,-266 471.45,-230 558.55,-230 558.55,-266"/>
<text text-anchor="middle" x="515" y="-243.8" font-family="Times,serif" font-size="14.00">AuthModule</text>
</g>
<!-- AppModule -->
<g id="node4" class="node">
<title>AppModule</title>
<polygon fill="#8dd3c7" stroke="black" points="349.66,-334 346.66,-338 325.66,-338 322.66,-334 266.34,-334 266.34,-298 349.66,-298 349.66,-334"/>
<text text-anchor="middle" x="308" y="-311.8" font-family="Times,serif" font-size="14.00">AppModule</text>
</g>
<!-- AuthModule&#45;&gt;AppModule -->
<g id="edge1" class="edge">
<title>AuthModule&#45;&gt;AppModule</title>
<path fill="none" stroke="black" d="M471.31,-248C468.33,-248 466.48,-248 466.48,-248 466.48,-248 466.48,-316 466.48,-316 466.48,-316 360.05,-316 360.05,-316"/>
<polygon fill="black" stroke="black" points="360.05,-312.5 350.05,-316 360.05,-319.5 360.05,-312.5"/>
</g>
<!-- AuthService  -->
<g id="node6" class="node">
<title>AuthService </title>
<polygon fill="#fb8072" stroke="black" points="559.98,-334 470.02,-334 470.02,-298 559.98,-298 559.98,-334"/>
<text text-anchor="middle" x="515" y="-311.8" font-family="Times,serif" font-size="14.00">AuthService </text>
</g>
<!-- AuthModule&#45;&gt;AuthService  -->
<g id="edge5" class="edge">
<title>AuthModule&#45;&gt;AuthService </title>
<path fill="none" stroke="black" stroke-dasharray="5,2" d="M515,-266.22C515,-266.22 515,-287.73 515,-287.73"/>
<polygon fill="black" stroke="black" points="511.5,-287.73 515,-297.73 518.5,-287.73 511.5,-287.73"/>
</g>
<!-- PostsModule -->
<g id="node2" class="node">
<title>PostsModule</title>
<polygon fill="#8dd3c7" stroke="black" points="415.61,-266 412.61,-270 391.61,-270 388.61,-266 326.39,-266 326.39,-230 415.61,-230 415.61,-266"/>
<text text-anchor="middle" x="371" y="-243.8" font-family="Times,serif" font-size="14.00">PostsModule</text>
</g>
<!-- PostsModule&#45;&gt;AppModule -->
<g id="edge2" class="edge">
<title>PostsModule&#45;&gt;AppModule</title>
<path fill="none" stroke="black" d="M338.14,-266.22C338.14,-266.22 338.14,-287.73 338.14,-287.73"/>
<polygon fill="black" stroke="black" points="334.64,-287.73 338.14,-297.73 341.64,-287.73 334.64,-287.73"/>
</g>
<!-- UsersModule -->
<g id="node3" class="node">
<title>UsersModule</title>
<polygon fill="#8dd3c7" stroke="black" points="143.92,-190 140.92,-194 119.92,-194 116.92,-190 52.08,-190 52.08,-154 143.92,-154 143.92,-190"/>
<text text-anchor="middle" x="98" y="-167.8" font-family="Times,serif" font-size="14.00">UsersModule</text>
</g>
<!-- UsersModule&#45;&gt;PostsModule -->
<g id="edge7" class="edge">
<title>UsersModule&#45;&gt;PostsModule</title>
<path fill="none" stroke="black" d="M135.69,-190.11C135.69,-199.9 135.69,-210 135.69,-210 135.69,-210 356.15,-210 356.15,-210 356.15,-210 356.15,-219.89 356.15,-219.89"/>
<polygon fill="black" stroke="black" points="352.65,-219.89 356.15,-229.89 359.65,-219.89 352.65,-219.89"/>
</g>
<!-- UsersModule&#45;&gt;AppModule -->
<g id="edge3" class="edge">
<title>UsersModule&#45;&gt;AppModule</title>
<path fill="none" stroke="black" d="M139.7,-190.24C139.7,-228.99 139.7,-316 139.7,-316 139.7,-316 255.96,-316 255.96,-316"/>
<polygon fill="black" stroke="black" points="255.96,-319.5 265.96,-316 255.96,-312.5 255.96,-319.5"/>
</g>
<!-- UsersService  -->
<g id="node9" class="node">
<title>UsersService </title>
<polygon fill="#fb8072" stroke="black" points="131.85,-266 38.15,-266 38.15,-230 131.85,-230 131.85,-266"/>
<text text-anchor="middle" x="85" y="-243.8" font-family="Times,serif" font-size="14.00">UsersService </text>
</g>
<!-- UsersModule&#45;&gt;UsersService  -->
<g id="edge9" class="edge">
<title>UsersModule&#45;&gt;UsersService </title>
<path fill="none" stroke="black" stroke-dasharray="5,2" d="M91.98,-190.01C91.98,-190.01 91.98,-219.85 91.98,-219.85"/>
<polygon fill="black" stroke="black" points="88.48,-219.85 91.98,-229.85 95.48,-219.85 88.48,-219.85"/>
</g>
<!-- AppService -->
<g id="node5" class="node">
<title>AppService</title>
<ellipse fill="#fdb462" stroke="black" cx="245" cy="-248" rx="56.74" ry="18"/>
<text text-anchor="middle" x="245" y="-243.8" font-family="Times,serif" font-size="14.00">AppService</text>
</g>
<!-- AppService&#45;&gt;AppModule -->
<g id="edge4" class="edge">
<title>AppService&#45;&gt;AppModule</title>
<path fill="none" stroke="black" d="M283.9,-261.11C283.9,-261.11 283.9,-287.79 283.9,-287.79"/>
<polygon fill="black" stroke="black" points="280.4,-287.79 283.9,-297.79 287.4,-287.79 280.4,-287.79"/>
</g>
<!-- AuthService -->
<g id="node7" class="node">
<title>AuthService</title>
<ellipse fill="#fdb462" stroke="black" cx="522" cy="-172" rx="59.11" ry="18"/>
<text text-anchor="middle" x="522" y="-167.8" font-family="Times,serif" font-size="14.00">AuthService</text>
</g>
<!-- AuthService&#45;&gt;AuthModule -->
<g id="edge6" class="edge">
<title>AuthService&#45;&gt;AuthModule</title>
<path fill="none" stroke="black" d="M515,-190.01C515,-190.01 515,-219.85 515,-219.85"/>
<polygon fill="black" stroke="black" points="511.5,-219.85 515,-229.85 518.5,-219.85 511.5,-219.85"/>
</g>
<!-- PostsService -->
<g id="node8" class="node">
<title>PostsService</title>
<ellipse fill="#fdb462" stroke="black" cx="363" cy="-172" rx="60.27" ry="18"/>
<text text-anchor="middle" x="363" y="-167.8" font-family="Times,serif" font-size="14.00">PostsService</text>
</g>
<!-- PostsService&#45;&gt;PostsModule -->
<g id="edge8" class="edge">
<title>PostsService&#45;&gt;PostsModule</title>
<path fill="none" stroke="black" d="M385.85,-188.87C385.85,-188.87 385.85,-219.85 385.85,-219.85"/>
<polygon fill="black" stroke="black" points="382.35,-219.85 385.85,-229.85 389.35,-219.85 382.35,-219.85"/>
</g>
<!-- UsersService -->
<g id="node10" class="node">
<title>UsersService</title>
<ellipse fill="#fdb462" stroke="black" cx="86" cy="-104" rx="61.95" ry="18"/>
<text text-anchor="middle" x="86" y="-99.8" font-family="Times,serif" font-size="14.00">UsersService</text>
</g>
<!-- UsersService&#45;&gt;UsersModule -->
<g id="edge10" class="edge">
<title>UsersService&#45;&gt;UsersModule</title>
<path fill="none" stroke="black" d="M98,-121.87C98,-121.87 98,-143.54 98,-143.54"/>
<polygon fill="black" stroke="black" points="94.5,-143.54 98,-153.54 101.5,-143.54 94.5,-143.54"/>
</g>
</g>
</svg>
